
<svg width="48" height="49" viewBox="0 0 48 49" xmlns="http://www.w3.org/2000/svg">
    <title>
        Search Icon Copy
    </title>
    <path d="M47.77 46.438L33.455 32.123c3.087-3.356 4.99-7.82 4.99-12.73 0-10.386-8.45-18.837-18.837-18.837S.77 9.006.77 19.394c0 10.388 8.451 18.84 18.838 18.84 4.43 0 8.499-1.547 11.719-4.114l14.38 14.38 2.063-2.062zM3.688 19.394c0-8.779 7.142-15.92 15.92-15.92 8.779 0 15.92 7.141 15.92 15.92 0 8.781-7.141 15.923-15.92 15.923-8.778 0-15.92-7.142-15.92-15.923z" stroke="silver" fill="silver" fill-rule="evenodd"/>
</svg>
